<?xml version="1.0" encoding="UTF-8" standalone="no"?>
<svg
   xmlns:osb="http://www.openswatchbook.org/uri/2009/osb"
   xmlns:dc="http://purl.org/dc/elements/1.1/"
   xmlns:cc="http://creativecommons.org/ns#"
   xmlns:rdf="http://www.w3.org/1999/02/22-rdf-syntax-ns#"
   xmlns:svg="http://www.w3.org/2000/svg"
   xmlns="http://www.w3.org/2000/svg"
   xmlns:sodipodi="http://sodipodi.sourceforge.net/DTD/sodipodi-0.dtd"
   xmlns:inkscape="http://www.inkscape.org/namespaces/inkscape"
   width="87mm"
   height="96mm"
   viewBox="0 0 87 96"
   version="1.1"
   id="svg75"
   inkscape:version="1.0 (4035a4fb49, 2020-05-01)"
   sodipodi:docname="x_crossout_trans.svg">
  <defs
     id="defs69">
    <linearGradient
       id="linearGradient926"
       osb:paint="gradient">
      <stop
         style="stop-color:#ff0000;stop-opacity:1;"
         offset="0"
         id="stop922" />
      <stop
         style="stop-color:#ff0000;stop-opacity:0;"
         offset="1"
         id="stop924" />
    </linearGradient>
    <inkscape:path-effect
       only_selected="false"
       apply_with_weight="true"
       apply_no_weight="true"
       helper_size="0"
       steps="2"
       weight="33.333333"
       lpeversion="1"
       is_visible="true"
       id="path-effect55"
       effect="bspline" />
  </defs>
  <sodipodi:namedview
     id="base"
     pagecolor="#ffffff"
     bordercolor="#666666"
     borderopacity="1.0"
     inkscape:pageopacity="0.0"
     inkscape:pageshadow="2"
     inkscape:zoom="2.8"
     inkscape:cx="156.95214"
     inkscape:cy="203.22342"
     inkscape:document-units="mm"
     inkscape:current-layer="layer1"
     inkscape:document-rotation="0"
     showgrid="false"
     inkscape:window-width="2396"
     inkscape:window-height="1670"
     inkscape:window-x="567"
     inkscape:window-y="29"
     inkscape:window-maximized="0" />
  <metadata
     id="metadata72">
    <rdf:RDF>
      <cc:Work
         rdf:about="">
        <dc:format>image/svg+xml</dc:format>
        <dc:type
           rdf:resource="http://purl.org/dc/dcmitype/StillImage" />
        <dc:title></dc:title>
      </cc:Work>
    </rdf:RDF>
  </metadata>
  <g
     inkscape:label="Layer 1"
     inkscape:groupmode="layer"
     id="layer1">
    <path
       inkscape:original-d="m 65.498297,0.41771168 c -0.22183,-0.005 -0.46545,0.10813 -0.64699,0.23151 -0.36573,0.24858 -0.50712,0.72536002 -0.73587,1.10381002 -0.39748,0.65759 -0.73904,1.34737 -1.10381,2.02365 -0.32994,0.61169 -0.65276,1.22725 -0.98133,1.83968 -0.69183,1.28951 -1.38393,2.57943 -2.08515,3.86385 -0.74969,1.3731993 -1.46267,2.7676193 -2.26911,4.1082793 -0.61664,1.02511 -1.27585,2.02514 -1.96216,3.00498 -0.70362,1.00456 -2.20761,2.94349 -2.20761,2.94349 0,0 -1.20251,1.50293 -1.83968,2.146641 -0.63718,0.64371 -1.29804,0.95569 -1.962161,1.71669 -0.66411,0.761 -1.22665,1.93116 -1.90117,2.88251 -0.67452,0.95135 -2.14664,2.8205 -2.14664,2.8205 l -6.315905,-2.94349 c 0,0 -5.55545,-1.97547 -8.34006,-2.94349 -2.26527,-0.78748 -4.53524,-1.5625 -6.80733,-2.330091 -1.83722,-0.62067 -3.63466,-1.38179 -5.51905,-1.83968 -1.28667,-0.31265 -2.60248,-0.45989 -3.91345,-0.64596 -0.95893,-0.13609 -1.91401,-0.37516 -2.88251,-0.36793 -0.43362,0.003 -0.89994,-0.01 -1.28778,0.18397 -0.20685,0.10342 -0.38699,0.28407 -0.49041,0.49092 -0.1939204,0.38785 -0.1972504,0.87841 -0.0543,1.28778 0.16688,0.47779 0.67749,0.72501 1.07177,1.04231 1.2721,1.023721 2.56053,1.901241 3.94963,2.759521 1.21441,0.75035 2.52385,1.35415 3.73,2.1177 0.89144,0.56433 1.86045,1.25839 2.74092,1.83969 0.91864,0.60649 1.75,1.09022 2.65514,1.71669 0.49089,0.33976 1.02691,0.64655 1.41076,1.1038 0.22343,0.26616 0.29136,0.63552 0.49041,0.92036 0.29852,0.42718 0.63991,0.83426 1.04283,1.16479 1.1194,0.91829 2.46325,1.52546 3.74034,2.20762 2.5806,1.37841 7.91115,3.80235 7.91115,3.80235 0,0 -27.11494,37.629503 -35.1999204,48.629593 -0.0484,0.0659 -0.0795,0.16545 0,0.24494 0.0795,0.0795 0.33912,0.111 0.42943,0 3.03479,-3.73003 9.2599004,-11.77395 9.2599004,-11.77395 0,0 -8.9192104,12.50657 -12.2188904,17.9219 -0.0877,0.14395 -0.42600996,0.79215 -0.49040996,0.95033 0.0608,0.16501 0.10264,0.2907 0.27595,0.26096 0.24591996,-0.0422 0.91199996,-1.02432 1.05781996,-1.22679 7.62631,-10.58957 22.7815504,-30.84566 22.7815504,-30.84566 0,0 -11.22324,15.79115 -13.66015,19.25567 -0.10941,0.15555 -0.15873,0.36348 -0.061,0.5674 0.23574,-0.026 0.41694,-0.10201 0.53641,-0.26096 2.92112,-3.88654 8.70799,-11.40602 8.70799,-11.40602 0,0 -11.6628004,16.71091 -12.5098304,18.09036 -0.11167,0.18187 -0.21671,0.28846 -0.10749,0.49041 0.29129,-0.0613 0.20757,0.0475 0.29146,-0.061 2.2758904,-2.94292 29.0669604,-38.51134 29.0669604,-38.51134 0,0 -11.88382,16.37107 -13.42967,18.5198 0.0539,0.19686 0.18658,0.1924 0.24546,0.12247 1.15293,-1.36944 5.88698,-7.29723 5.88698,-7.29723 0,0 -7.26421,9.70142 -10.48618,14.22704 -0.0671,0.0942 -0.0459,0.26219 0.061,0.30644 0.0567,0.0235 0.32911,-0.014 0.36793,-0.0615 8.72853,-10.67349 26.553425,-34.58651 26.553425,-34.58651 l 1.02681,0.52141 -5.25807,7.5737 c -1.52971,2.35201 -4.123085,6.20119 -4.354265,6.56135 -0.0692,0.10923 7.9e-4,0.32599 0.12299,0.36794 0.13943,0.0478 0.26298,-0.14144 0.36794,-0.24494 4.216195,-4.15808 10.547165,-13.73663 10.547165,-13.73663 l 4.415751,1.7172 6.86779,3.12746 7.35925,3.67936 4.90564,2.75952 c 0,0 3.35857,2.38284 5.09013,3.4954 0.80221,0.51544 1.44182,0.92576 1.91616,1.18029 0.40289,0.1663 0.97875,0.35138 1.10381,0.19947 -0.35368,-0.63746 -0.63668,-0.88056 -1.11931,-1.25729 -0.62613,-0.49515 -1.1961,-1.06048 -1.83968,-1.53272 -0.82287,-0.6038 -1.72858,-1.08675 -2.57556,-1.65623 -0.76711,-0.51578 -2.26911,-1.59422 -2.26911,-1.59422 0,0 2.69066,1.41504 3.98632,2.20762 1.15588,0.70707 2.24885,1.5125 3.37292,2.26911 1.00179,0.67431 3.00447,2.02365 3.00447,2.02365 0,0 1.91728,1.3025 3.00498,1.65571 0.15675,0.0509 0.3837,0.18665 0.49093,0.0615 0.0968,-0.113 -0.0449,-0.30277 -0.12299,-0.42943 -0.36453,-0.59102 -1.00116,-0.96407 -1.53324,-1.41025 -0.74872,-0.62784 -1.53307,-1.21344 -2.33009,-1.7787 -0.75842,-0.53788 -1.55398,-1.02071 -2.33009,-1.53272 -1.32979,-0.87729 -2.6464,-1.77532 -3.98632,-2.63705 -1.29756,-0.83449 -2.59369,-1.67327 -3.92483,-2.45308 -1.46815,-0.86008 -2.99573,-1.61438 -4.47621,-2.45308 -0.84495,-0.47867 -1.67584,-0.98227 -2.51457,-1.47175 -1.1234,-0.6556 -3.37241,-1.96215 -3.37241,-1.96215 0,0 3.57801,1.63216 5.33508,2.51406 1.2423,0.62352 2.46821,1.28061 3.67936,1.96267 1.3257,0.74657 2.61141,1.56211 3.92482,2.33009 0.72129,0.42858 1.78802,0.92577 2.02365,0.85834 0.0623,-0.1604 -0.60802,-0.74505 -0.98133,-1.04231 -0.98184,-0.78182 -3.25045,-1.90118 -3.25045,-1.90118 l -3.06596,-1.90065 3.80183,1.77818 3.00499,1.71721 4.04729,2.26859 1.77871,1.11932 c 0,0 0.37524,0.16634 0.5519,0.10748 -0.084,-0.33481 -1.47174,-1.34927 -1.47174,-1.34927 l -4.29276,-2.82102 -3.74086,-2.33009 -6.25492,-3.43389 -6.80681,-3.37292 -7.66569,-3.740863 0.73587,0.12247 5.21261,2.146643 4.47673,2.20762 c 0,0 1.85586,0.99167 2.28409,1.21078 0.14559,0.0745 1.0795,0.53821 1.2728,0.50642 0.0655,-0.14019 -0.54834,-0.58098 -0.78187,-0.72088 -1.48705,-0.89086 -3.87883,-2.34559 -3.87883,-2.34559 2.78497,1.03104 5.25064,2.49926 7.78815,3.92482 0,0 1.18518,0.7807 1.83968,1.04232 0.23479,0.0939 0.53658,0.33957 0.73588,0.18396 0.145,-0.11322 0.0944,-0.3253 -0.031,-0.45992 -0.19189,-0.20598 -0.37332,-0.38472 -0.5824,-0.5209 -0.86071,-0.56056 -2.63705,-1.59473 -2.63705,-1.59473 l -4.72167,-2.75952 -3.55689,-1.778193 -3.98581,-1.96267 -3.18895,-1.71669 2.45308,-3.98632 3.06596,-6.07095 c 0,0 1.96405,-4.2329 2.88252,-6.377391 0.68595,-1.60159 1.37367,-3.20475 1.96215,-4.84466 0.62234,-1.73426 1.20103,-3.48854 1.65571,-5.2740993 0.33932,-1.33251 0.56719,-2.69165 0.79737,-4.04729 0.0968,-0.57 0.23013,-1.13923 0.24494,-1.71721 0.0116,-0.45141 -0.0413,-0.90455 -0.12247,-1.34875 -0.0687,-0.37565 -0.16931,-0.74741 -0.30644,-1.10381002 -0.0657,-0.17064 -0.0807,-0.41172 -0.24546,-0.49092 -0.0659,-0.0317 -0.13742,-0.046 -0.21136,-0.0476 z M 36.720201,27.881672 c 0.31368,0.0124 0.63511,0.0455 0.83354,0.062 0.39688,0.0331 1.66132,0.23441 1.91823,0.29765 0.26872,0.0661 0.903505,0.36618 1.521365,0.59532 0.62425,0.23151 3.44862,1.46254 3.73724,1.55442 -0.38938,0.69547 -0.72515,1.06326 -0.92605,1.2237 -0.45308,-0.0917 -3.86953,-1.55442 -4.530995,-1.78594 -0.66145,-0.23151 -1.19062,-0.7276 -1.65364,-0.95911 -0.46302,-0.23151 -1.2204,-0.35767 -1.42627,-0.47956 -0.14103,-0.0835 -0.30593,-0.16123 -0.26045,-0.44648 0.16743,-0.0661 0.47336,-0.0744 0.78703,-0.062 z"
       inkscape:path-effect="#path-effect55"
       d="M 65.400765,0.45261134 C 65.303232,0.487511 65.051379,0.57763084 64.837712,0.78387251 64.624046,0.99011417 64.36049,1.3854504 64.054173,1.9061903 63.747856,2.4269301 63.379565,3.1021296 63.032047,3.7460084 62.684528,4.3898873 62.3574,5.0031489 61.84636,5.9536615 61.335321,6.9041741 60.640113,8.1924168 59.914428,9.5210594 59.188742,10.849702 58.431937,12.219916 57.727184,13.40469 c -0.704752,1.184774 -1.3596,2.187652 -2.054199,3.178545 -0.694598,0.990893 -1.430848,1.972563 -2.166718,2.953726 -0.613227,0.715547 -1.251809,1.46068 -1.885704,2.101091 -0.633895,0.64041 -1.162833,1.103176 -1.815028,1.85048 -0.652196,0.747305 -1.360549,1.821293 -2.034358,2.77152 -0.673809,0.950226 -1.399014,1.903083 -2.114561,2.84325 0,0 -6.315905,-2.94349 -6.315905,-2.94349 -2.78002,-0.981163 -5.560083,-1.962342 -8.08456,-2.841242 -2.524477,-0.878899 -4.793843,-1.655684 -6.848186,-2.350627 -2.054343,-0.694944 -3.900376,-1.310287 -5.468426,-1.723359 -1.56805,-0.413072 -2.87262,-0.628406 -4.005994,-0.797509 -1.133373,-0.169103 -2.103168,-0.29289 -2.791885,-0.323268 -0.688716,-0.03038 -1.14389,0.03465 -1.425023,0.14133 -0.281133,0.106683 -0.461435,0.287172 -0.54731,0.562455 -0.08587,0.275283 -0.106529,0.765112 0.04727,1.124249 0.153795,0.359136 0.539776,0.734507 1.388112,1.376679 0.848336,0.642171 2.126119,1.53493 3.41459,2.353945 1.288471,0.819014 2.53796,1.528409 3.595797,2.174288 1.057836,0.645879 2.047052,1.309835 2.947229,1.90264 0.900178,0.592806 1.707013,1.114468 2.403677,1.596784 0.696664,0.482316 1.178037,0.858949 1.487974,1.188921 0.309938,0.329972 0.478249,0.645845 0.731918,0.990809 0.25367,0.344964 0.607863,0.740581 1.395707,1.296055 0.787843,0.555474 2.050277,1.300586 3.990409,2.301334 1.940131,1.000748 4.579715,2.269416 7.216765,3.536866 C 27.055464,54.880026 11.593314,76.241384 7.5910822,81.803519 3.5888506,87.365655 3.5888506,87.465205 3.6286006,87.50495 c 0.03975,0.03975 0.29937,0.03975 1.8306511,-1.849862 1.5312811,-1.889607 4.7322963,-5.959693 7.8189293,-9.884343 -4.0729635,5.973967 -8.6513208,12.689213 -10.4736583,15.380265 -1.82233761,2.691052 -2.15763747,3.340806 -2.13940345,3.470512 0.018234,0.129707 0.10306835,0.209933 0.20426041,0.17326 C 0.97057172,94.758109 1.7403333,93.86539 5.6976645,88.523025 9.6549956,83.18066 17.090351,73.113372 24.684201,62.831485 c -4.553383,6.418557 -11.209369,15.800991 -12.44365,17.611031 -1.234282,1.81004 -1.256944,2.020836 -1.166796,2.067581 0.09015,0.04675 0.266571,-0.03908 1.821255,-2.00995 1.554683,-1.970866 4.409778,-5.710565 7.312441,-9.512572 -4.169943,6.03012 -11.5904921,16.760913 -12.0717385,17.52408 -0.4812465,0.763167 -0.5083533,0.886839 -0.381289,0.941275 0.1270644,0.05444 0.025042,0.07579 1.1966318,-1.419505 C 10.122645,86.538132 27.259564,63.833118 36.948551,50.996005 32.471994,57.169272 25.072796,67.372923 24.356739,68.47475 c -0.716058,1.101826 -0.611606,1.153942 -0.04012,0.462249 0.571487,-0.691692 3.372374,-4.163544 5.334701,-6.595954 -3.495393,4.742347 -7.190546,9.755715 -8.830623,12.030258 -1.640078,2.274544 -1.607104,2.44019 -1.575162,2.467415 0.03194,0.02723 0.303046,-0.01809 4.522048,-5.487623 4.219001,-5.469533 13.52877,-17.595743 22.379912,-29.12458 0,0 1.02681,0.52141 1.02681,0.52141 0,0 -5.25807,7.5737 -6.033734,8.742532 -0.775664,1.168832 -3.341985,5.035966 -3.447349,5.252965 -0.105365,0.216998 -0.03316,0.433017 0.01657,0.445436 0.04973,0.01242 0.222633,-0.102684 2.068997,-2.469036 1.846363,-2.366353 5.305551,-6.8716 8.821273,-11.450477 0,0 4.415751,1.7172 4.415751,1.7172 0,0 6.86779,3.12746 6.86779,3.12746 0,0 7.35925,3.67936 7.35925,3.67936 0,0 4.90564,2.75952 4.90564,2.75952 1.69671,1.165133 3.394271,2.330851 4.648062,3.163123 1.253792,0.832272 1.900699,1.230745 2.339089,1.409537 0.43839,0.178793 1.028427,0.285419 0.839206,0.02833 -0.189221,-0.257093 -0.435079,-0.533259 -0.94187,-1.013586 -0.506791,-0.480326 -1.121249,-0.992259 -1.855728,-1.522749 -0.734479,-0.530491 -1.594936,-1.083813 -2.402177,-1.625419 -0.807242,-0.541606 -1.563772,-1.073125 -2.320142,-1.604532 1.328773,0.735873 2.658855,1.472471 3.884192,2.217862 1.225338,0.74539 2.350793,1.502533 3.413713,2.218007 1.06292,0.715475 2.064315,1.389961 3.065805,2.064511 1.00166,0.551903 2.021299,1.113713 2.593443,1.394771 0.572143,0.281058 0.812329,0.311147 0.846112,0.277387 0.03378,-0.03376 -0.02719,-0.24665 -0.292887,-0.541758 -0.265698,-0.295108 -0.796442,-0.783278 -1.439651,-1.314209 -0.643209,-0.530932 -1.421221,-1.124835 -2.197486,-1.676429 -0.776265,-0.551594 -1.553237,-1.062681 -2.605977,-1.757646 -1.05274,-0.694965 -2.381802,-1.574172 -3.700148,-2.422412 -1.318346,-0.848239 -2.627365,-1.666397 -4.02698,-2.483761 -1.399615,-0.817365 -2.892276,-1.635382 -4.057297,-2.289458 -1.165021,-0.654076 -2.003448,-1.144798 -2.984633,-1.717127 -0.981186,-0.57233 -2.105199,-1.226308 -3.229336,-1.880358 1.77836,0.83802 3.557221,1.676276 5.05917,2.422169 1.50195,0.745894 2.72917,1.400526 3.996187,2.115791 1.267017,0.715265 2.575658,1.49218 3.612469,2.042839 1.036811,0.550659 2.119622,1.009938 2.181963,1.020182 0.06234,0.01024 -0.544433,-0.634235 -1.242465,-1.119773 -0.698033,-0.485537 -1.792711,-1.125811 -2.876194,-1.759538 0,0 -3.06596,-1.90065 -3.06596,-1.90065 0,0 3.80183,1.77818 3.80183,1.77818 0,0 3.00499,1.71721 3.00499,1.71721 0,0 4.04729,2.26859 4.04729,2.26859 0,0 1.77871,1.11932 1.77871,1.11932 0.183967,0.03583 0.392739,0.07648 0.366112,-0.0054 -0.02663,-0.08187 -0.795372,-0.786646 -1.285952,-1.236403 0,0 -4.29276,-2.82102 -4.29276,-2.82102 0,0 -3.74086,-2.33009 -3.74086,-2.33009 0,0 -6.25492,-3.43389 -6.25492,-3.43389 0,0 -6.80681,-3.37292 -6.80681,-3.37292 0,0 -7.66569,-3.740863 -7.66569,-3.740863 0,0 0.73587,0.12247 0.73587,0.12247 0,0 5.21261,2.146643 5.21261,2.146643 0,0 4.47673,2.20762 4.47673,2.20762 0.761363,0.403593 1.859126,0.985509 2.147249,1.128241 0.288124,0.142731 1.253679,0.526905 1.31443,0.542046 0.06075,0.01514 -0.490712,-0.493305 -1.330354,-1.032135 -0.839643,-0.53883 -1.942192,-1.205559 -3.235135,-1.987422 2.635293,1.32805 5.191648,2.616319 7.78815,3.92482 0.613227,0.34744 1.232017,0.698033 1.657385,0.900559 0.425368,0.202526 0.76721,0.287982 0.839222,0.255362 0.07201,-0.03262 0.05755,-0.247136 -0.05173,-0.411796 -0.10928,-0.164659 -0.298893,-0.33425 -0.83003,-0.682073 -0.531136,-0.347824 -1.410723,-0.879745 -2.28974,-1.411322 0,0 -4.72167,-2.75952 -4.72167,-2.75952 0,0 -3.55689,-1.778193 -3.55689,-1.778193 0,0 -3.98581,-1.96267 -3.98581,-1.96267 0,0 -3.18895,-1.71669 -3.18895,-1.71669 0,0 2.45308,-3.98632 2.45308,-3.98632 0,0 3.06596,-6.07095 3.06596,-6.07095 0.96084,-2.125797 1.921851,-4.251973 2.729145,-6.121964 0.807294,-1.86999 1.462009,-3.486518 2.064481,-5.171563 0.602473,-1.685045 1.155707,-3.447317 1.563926,-4.9985075 0.40822,-1.5511907 0.674498,-2.9027638 0.848154,-3.8631679 0.173657,-0.9604042 0.25589,-1.5369225 0.276158,-2.0445221 0.02027,-0.5075996 -0.02098,-0.9617982 -0.09218,-1.3689755 -0.07121,-0.4071773 -0.174228,-0.7782677 -0.265764,-1.042785 -0.09154,-0.26451732 -0.190968,-0.46338132 -0.258041,-0.53584082 -0.06707,-0.0724595 -0.138205,-0.0884792 -0.173562,-0.0964418 -0.03536,-0.007963 -0.03532,-0.007903 -0.132849,0.026997 z M 36.721254,27.905549 c 0.311818,-6.05e-4 0.633928,0.02335 0.92949,0.06119 0.295561,0.03784 1.560775,0.234164 1.818735,0.304354 0.25796,0.07019 0.910284,0.325449 1.524208,0.573243 0.613924,0.247795 3.458256,1.43083 3.35935,1.803567 -0.09891,0.372737 -0.398152,0.768167 -0.68505,0.784059 -0.286899,0.01589 -3.742954,-1.346349 -4.366418,-1.64742 -0.623463,-0.301071 -1.234734,-0.655608 -1.701169,-0.866914 -0.466435,-0.211306 -1.184998,-0.452911 -1.331963,-0.552037 -0.146964,-0.09913 -0.222662,-0.228891 -0.193178,-0.332165 0.02948,-0.103275 0.334177,-0.127278 0.645995,-0.127882 z"
       style="fill:#7f0000;fill-opacity:1;stroke:none;stroke-width:0.264583px;stroke-linecap:butt;stroke-linejoin:miter;stroke-opacity:1;opacity:0.83278689"
       id="path50" />
  </g>
</svg>
